<?xml version="1.0" encoding="UTF-8" standalone="no"?>
<!DOCTYPE svg PUBLIC "-//W3C//DTD SVG 1.1//EN" "http://www.w3.org/Graphics/SVG/1.1/DTD/svg11.dtd">
<!-- Generated by Microsoft Visio, SVG Export sp-2.svg Pagina 1 -->
<svg xmlns="http://www.w3.org/2000/svg" xmlns:xlink="http://www.w3.org/1999/xlink" xmlns:ev="http://www.w3.org/2001/xml-events"
		xmlns:v="http://schemas.microsoft.com/visio/2003/SVGExtensions/" width="5.43126in" height="9.00886in"
		viewBox="0 0 391.051 648.638" xml:space="preserve" color-interpolation-filters="sRGB" class="st12">
	<v:documentProperties v:langID="2057">
		<v:userDefs>
			<v:ud v:nameU="MBSAAddinOutlineVisible" v:prompt="" v:val="VT0(1):26"/>
		</v:userDefs>
	</v:documentProperties>

	<style type="text/css">
	<![CDATA[
		.st1 {fill:#ffffff;stroke:none;stroke-linecap:round;stroke-linejoin:round;stroke-width:0.719998}
		.st2 {fill:#bfbfbf;stroke:#bfbfbf;stroke-linecap:round;stroke-linejoin:round;stroke-width:0.719998}
		.st3 {fill:#ffffff;stroke:#000000;stroke-linecap:round;stroke-linejoin:round;stroke-width:0.719998}
		.st4 {fill:none;stroke:none;stroke-linecap:round;stroke-linejoin:round;stroke-width:0.719998}
		.st5 {fill:#000000;font-family:Arial;font-size:0.666664em}
		.st6 {fill:none;stroke:none;stroke-width:0.999999}
		.st7 {fill:none}
		.st8 {stroke:#000000;stroke-linecap:round;stroke-linejoin:round;stroke-width:0.719998}
		.st9 {fill:#000000;font-family:Arial;font-size:0.666664em;font-style:italic}
		.st10 {font-size:1em;font-style:italic}
		.st11 {font-size:1em}
		.st12 {fill:none;fill-rule:evenodd;font-size:12px;overflow:visible;stroke-linecap:square;stroke-miterlimit:3}
	]]>
	</style>

	<g v:mID="0" v:index="1" v:groupContext="foregroundPage">
		<title>Pagina 1</title>
		<v:pageProperties v:drawingScale="0.0393701" v:pageScale="0.0393701" v:drawingUnits="24" v:shadowOffsetX="8.50392"
				v:shadowOffsetY="-8.50392"/>
		<v:layer v:name="Connector" v:index="0"/>
		<g id="shape1-1" v:mID="1" v:groupContext="shape" transform="translate(18.36,-18.36)">
			<title>Foglio.139</title>
			<rect x="0" y="36.72" width="354.331" height="611.918" class="st1"/>
		</g>
		<g id="shape2-3" v:mID="2" v:groupContext="shape" transform="translate(24.0293,-601.93)">
			<title>Foglio.2</title>
			<path d="M0 640.13 A8.50412 8.50412 -180 0 0 8.5 648.64 L147.06 648.64 A8.50412 8.50412 -180 0 0 155.56 640.13 L155.56
						 638.25 A8.50412 8.50412 -180 0 0 147.06 629.74 L8.5 629.74 A8.50412 8.50412 -180 0 0 0 638.25 L0 640.13
						 Z" class="st2"/>
		</g>
		<g id="shape3-5" v:mID="3" v:groupContext="shape" transform="translate(21.0327,-605.568)">
			<title>Foglio.3</title>
			<path d="M0 640.13 A8.50412 8.50412 -180 0 0 8.5 648.64 L145.81 648.64 A8.50412 8.50412 -180 0 0 154.31 640.13 L154.31
						 638.25 A8.50412 8.50412 -180 0 0 145.81 629.74 L8.5 629.74 A8.50412 8.50412 -180 0 0 0 638.25 L0 640.13
						 Z" class="st3"/>
		</g>
		<g id="shape4-7" v:mID="4" v:groupContext="shape" transform="translate(28.3465,-606.042)">
			<title>Foglio.138</title>
			<desc>el.CompositeELResolver</desc>
			<v:userDefs/>
			<v:textBlock v:margins="rect(4,4,4,4)" v:tabSpace="42.5197"/>
			<v:textRect cx="53.0157" cy="639.424" width="106.04" height="18.4252"/>
			<rect x="0" y="630.213" width="106.031" height="18.4252" class="st4"/>
			<text x="4" y="641.82" class="st5" v:langID="2057"><v:paragraph/><v:tabList/>el.CompositeELResolver</text>		</g>
		<g id="group5-10" transform="translate(-613.265,611.002) rotate(-90)" v:mID="5" v:groupContext="group">
			<title>Foglio.598</title>
			<g id="shape6-11" v:mID="6" v:groupContext="shape">
				<title>Sheet.6</title>
				<path d="M0 648.64 L567.94 648.64 L0 648.64 Z" class="st6"/>
			</g>
			<g id="shape7-13" v:mID="7" v:groupContext="shape">
				<title>Sheet.7</title>
				<path d="M0 648.64 L567.94 648.64 L0 648.64 Z" class="st7"/>
				<path d="M0 648.64 L567.94 648.64" class="st8"/>
			</g>
		</g>
		<g id="group8-16" transform="translate(64.9098,709.513) rotate(180)" v:mID="8" v:groupContext="group">
			<title>Foglio.599</title>
			<g id="shape9-17" v:mID="9" v:groupContext="shape">
				<title>Sheet.9</title>
				<path d="M0 648.64 L29.03 648.64 L0 648.64 Z" class="st6"/>
			</g>
			<g id="shape10-19" v:mID="10" v:groupContext="shape">
				<title>Sheet.10</title>
				<path d="M0 648.64 L29.03 648.64 L0 648.64 Z" class="st7"/>
				<path d="M0 648.64 L29.03 648.64" class="st8"/>
			</g>
		</g>
		<g id="shape11-22" v:mID="11" v:groupContext="shape" transform="translate(66.549,-573.583)">
			<title>Foglio.4</title>
			<path d="M0 640.13 A8.50412 8.50412 -180 0 0 8.5 648.64 L147.43 648.64 A8.50412 8.50412 -180 0 0 155.93 640.13 L155.93
						 638.25 A8.50412 8.50412 -180 0 0 147.43 629.74 L8.5 629.74 A8.50412 8.50412 -180 0 0 -0 638.25 L0 640.13
						 Z" class="st2"/>
		</g>
		<g id="shape12-24" v:mID="12" v:groupContext="shape" transform="translate(64.1193,-577.363)">
			<title>Foglio.5</title>
			<path d="M0 640.13 A8.50412 8.50412 -180 0 0 8.5 648.64 L146.18 648.64 A8.50412 8.50412 -180 0 0 154.68 640.13 L154.68
						 638.25 A8.50412 8.50412 -180 0 0 146.18 629.74 L8.5 629.74 A8.50412 8.50412 -180 0 0 0 638.25 L0 640.13
						 Z" class="st3"/>
		</g>
		<g id="shape13-26" v:mID="13" v:groupContext="shape" transform="translate(72.5669,-577.837)">
			<title>Foglio.6</title>
			<desc>jsp.ImplicitObjectELResolver</desc>
			<v:userDefs/>
			<v:textBlock v:margins="rect(4,4,4,4)" v:tabSpace="42.5197"/>
			<v:textRect cx="60.803" cy="639.424" width="121.62" height="18.4252"/>
			<rect x="0" y="630.213" width="121.606" height="18.4252" class="st4"/>
			<text x="4" y="641.82" class="st5" v:langID="2057"><v:paragraph/><v:tabList/>jsp.ImplicitObjectELResolver</text>		</g>
		<g id="shape14-29" v:mID="14" v:groupContext="shape" transform="translate(66.549,-545.308)">
			<title>Foglio.7</title>
			<path d="M0 640.13 A8.50412 8.50412 -180 0 0 8.5 648.64 L146.9 648.64 A8.50412 8.50412 -180 0 0 155.4 640.13 L155.4 638.25
						 A8.50412 8.50412 -180 0 0 146.9 629.74 L8.5 629.74 A8.50412 8.50412 -180 0 0 -0 638.25 L0 640.13 Z"
					class="st2"/>
		</g>
		<g id="shape15-31" v:mID="15" v:groupContext="shape" transform="translate(64.588,-548.945)">
			<title>Foglio.8</title>
			<path d="M0 640.13 A8.50412 8.50412 -180 0 0 8.5 648.64 L145.65 648.64 A8.50412 8.50412 -180 0 0 154.16 640.13 L154.16
						 638.25 A8.50412 8.50412 -180 0 0 145.65 629.74 L8.5 629.74 A8.50412 8.50412 -180 0 0 -0 638.25 L0 640.13
						 Z" class="st3"/>
		</g>
		<g id="shape16-33" v:mID="16" v:groupContext="shape" transform="translate(73.1339,-549.42)">
			<title>Foglio.9</title>
			<desc>el.CompositeELResolver</desc>
			<v:userDefs/>
			<v:textBlock v:margins="rect(4,4,4,4)" v:tabSpace="42.5197"/>
			<v:textRect cx="51.7806" cy="639.424" width="103.57" height="18.4252"/>
			<rect x="0" y="630.213" width="103.561" height="18.4252" class="st4"/>
			<text x="4" y="641.82" class="st5" v:langID="2057"><v:paragraph/><v:tabList/>el.CompositeELResolver</text>		</g>
		<g id="shape17-36" v:mID="17" v:groupContext="shape" transform="translate(95.6379,-517.032)">
			<title>Foglio.10</title>
			<path d="M0 640.13 A8.50412 8.50412 -180 0 0 8.5 648.64 L158 648.64 A8.50412 8.50412 -180 0 0 166.5 640.13 L166.5 638.25
						 A8.50412 8.50412 -180 0 0 158 629.74 L8.5 629.74 A8.50412 8.50412 -180 0 0 -0 638.25 L0 640.13 Z"
					class="st2"/>
		</g>
		<g id="shape18-38" v:mID="18" v:groupContext="shape" transform="translate(92.0606,-520.67)">
			<title>Foglio.11</title>
			<path d="M0 640.13 A8.50412 8.50412 -180 0 0 8.5 648.64 L156.66 648.64 A8.50412 8.50412 -180 0 0 165.17 640.13 L165.17
						 638.25 A8.50412 8.50412 -180 0 0 156.66 629.74 L8.5 629.74 A8.50412 8.50412 -180 0 0 -0 638.25 L0 640.13
						 Z" class="st3"/>
		</g>
		<g id="shape19-40" v:mID="19" v:groupContext="shape" transform="translate(99.2126,-521.144)">
			<title>Foglio.12</title>
			<desc>JSF’s el.CompositeELResolver</desc>
			<v:userDefs/>
			<v:textBlock v:margins="rect(4,4,4,4)" v:tabSpace="42.5197"/>
			<v:textRect cx="68.0313" cy="639.424" width="136.08" height="18.4252"/>
			<rect x="0" y="630.213" width="136.063" height="18.4252" class="st4"/>
			<text x="3.99" y="641.82" class="st5" v:langID="2057"><v:paragraph/><v:tabList/>JSF’s el.CompositeELResolver</text>		</g>
		<g id="shape20-43" v:mID="20" v:groupContext="shape" transform="translate(123.985,-488.686)">
			<title>Foglio.13</title>
			<path d="M0 640.13 A8.50412 8.50412 -180 0 0 8.5 648.64 L158 648.64 A8.50412 8.50412 -180 0 0 166.5 640.13 L166.5 638.25
						 A8.50412 8.50412 -180 0 0 158 629.74 L8.5 629.74 A8.50412 8.50412 -180 0 0 -0 638.25 L0 640.13 Z"
					class="st2"/>
		</g>
		<g id="shape21-45" v:mID="21" v:groupContext="shape" transform="translate(120.407,-492.323)">
			<title>Foglio.14</title>
			<path d="M0 640.13 A8.50412 8.50412 -180 0 0 8.5 648.64 L156.66 648.64 A8.50412 8.50412 -180 0 0 165.17 640.13 L165.17
						 638.25 A8.50412 8.50412 -180 0 0 156.66 629.74 L8.5 629.74 A8.50412 8.50412 -180 0 0 -0 638.25 L0 640.13
						 Z" class="st3"/>
		</g>
		<g id="shape22-47" v:mID="22" v:groupContext="shape" transform="translate(127.559,-492.798)">
			<title>Foglio.15</title>
			<desc>jsf.ImplicitObjectELResolver</desc>
			<v:userDefs/>
			<v:textBlock v:margins="rect(4,4,4,4)" v:tabSpace="42.5197"/>
			<v:textRect cx="72.4751" cy="639.424" width="144.96" height="18.4252"/>
			<rect x="0" y="630.213" width="144.951" height="18.4252" class="st4"/>
			<text x="4" y="641.82" class="st5" v:langID="2057"><v:paragraph/><v:tabList/>jsf.ImplicitObjectELResolver</text>		</g>
		<g id="shape23-50" v:mID="23" v:groupContext="shape" transform="translate(123.985,-460.339)">
			<title>Foglio.16</title>
			<path d="M0 640.13 A8.50412 8.50412 -180 0 0 8.5 648.64 L158 648.64 A8.50412 8.50412 -180 0 0 166.5 640.13 L166.5 638.25
						 A8.50412 8.50412 -180 0 0 158 629.74 L8.5 629.74 A8.50412 8.50412 -180 0 0 -0 638.25 L0 640.13 Z"
					class="st2"/>
		</g>
		<g id="shape24-52" v:mID="24" v:groupContext="shape" transform="translate(120.407,-463.977)">
			<title>Foglio.17</title>
			<path d="M0 640.13 A8.50412 8.50412 -180 0 0 8.5 648.64 L156.66 648.64 A8.50412 8.50412 -180 0 0 165.17 640.13 L165.17
						 638.25 A8.50412 8.50412 -180 0 0 156.66 629.74 L8.5 629.74 A8.50412 8.50412 -180 0 0 -0 638.25 L0 640.13
						 Z" class="st3"/>
		</g>
		<g id="shape25-54" v:mID="25" v:groupContext="shape" transform="translate(127.559,-464.451)">
			<title>Foglio.18</title>
			<desc>jsf.ManagedBeanELResolver</desc>
			<v:userDefs/>
			<v:textBlock v:margins="rect(4,4,4,4)" v:tabSpace="42.5197"/>
			<v:textRect cx="72.4751" cy="639.424" width="144.96" height="18.4252"/>
			<rect x="0" y="630.213" width="144.951" height="18.4252" class="st4"/>
			<text x="4" y="641.82" class="st5" v:langID="2057"><v:paragraph/><v:tabList/>jsf.ManagedBeanELResolver</text>		</g>
		<g id="shape26-57" v:mID="26" v:groupContext="shape" transform="translate(124.998,-431.993)">
			<title>Foglio.19</title>
			<path d="M0 640.13 A8.50412 8.50412 -180 0 0 8.5 648.64 L205.17 648.64 A8.50412 8.50412 -180 0 0 213.68 640.13 L213.68
						 638.25 A8.50412 8.50412 -180 0 0 205.17 629.74 L8.5 629.74 A8.50412 8.50412 -180 0 0 0 638.25 L0 640.13
						 Z" class="st2"/>
		</g>
		<g id="shape27-59" v:mID="27" v:groupContext="shape" transform="translate(120.407,-435.631)">
			<title>Foglio.20</title>
			<path d="M0 640.13 A8.50412 8.50412 -180 0 0 8.5 648.64 L203.46 648.64 A8.50412 8.50412 -180 0 0 211.97 640.13 L211.97
						 638.25 A8.50412 8.50412 -180 0 0 203.46 629.74 L8.5 629.74 A8.50412 8.50412 -180 0 0 -0 638.25 L0 640.13
						 Z" class="st3"/>
		</g>
		<g id="shape28-61" v:mID="28" v:groupContext="shape" transform="translate(127.559,-436.105)">
			<title>Foglio.21</title>
			<desc>ELResolvers in faces-config.xml</desc>
			<v:userDefs/>
			<v:textBlock v:margins="rect(4,4,4,4)" v:tabSpace="42.5197"/>
			<v:textRect cx="78.859" cy="639.424" width="157.73" height="18.4252"/>
			<rect x="0" y="630.213" width="157.718" height="18.4252" class="st4"/>
			<text x="4" y="641.82" class="st9" v:langID="2057"><v:paragraph/><v:tabList/>ELResolvers in faces-config.xml</text>		</g>
		<g id="shape29-64" v:mID="29" v:groupContext="shape" transform="translate(124.998,-390.608)">
			<title>Foglio.22</title>
			<path d="M0 640.13 A8.50412 8.50412 -180 0 0 8.5 648.64 L205.17 648.64 A8.50412 8.50412 -180 0 0 213.68 640.13 L213.68
						 624.4 A8.50412 8.50412 -180 0 0 205.17 615.9 L8.5 615.9 A8.50412 8.50412 -180 0 0 0 624.4 L0 640.13 Z"
					class="st2"/>
		</g>
		<g id="shape30-66" v:mID="30" v:groupContext="shape" transform="translate(120.407,-394.86)">
			<title>Foglio.23</title>
			<path d="M0 640.13 A8.50412 8.50412 -180 0 0 8.5 648.64 L203.46 648.64 A8.50412 8.50412 -180 0 0 211.97 640.13 L211.97
						 625.82 A8.50412 8.50412 -180 0 0 203.46 617.32 L8.5 617.32 A8.50412 8.50412 -180 0 0 0 625.82 L0 640.13
						 Z" class="st3"/>
		</g>
		<g id="shape31-68" v:mID="31" v:groupContext="shape" transform="translate(127.559,-394.861)">
			<title>Foglio.24</title>
			<desc>jsf.VariableResolverChainWrapper (Supports legacy jsf.Variabl...</desc>
			<v:userDefs/>
			<v:textBlock v:margins="rect(4,4,4,4)" v:tabSpace="42.5197"/>
			<v:textRect cx="81.9514" cy="632.977" width="163.91" height="31.3228"/>
			<rect x="0" y="617.315" width="163.903" height="31.3228" class="st4"/>
			<text x="4" y="630.58" class="st5" v:langID="2057"><v:paragraph/><v:tabList/>jsf.VariableResolverChainWrapper<v:newlineChar/><tspan
						x="4" dy="1.2em" class="st10">(Supports legacy jsf.VariableResolvers)</tspan></text>		</g>
		<g id="shape32-72" v:mID="32" v:groupContext="shape" transform="translate(124.998,-350.285)">
			<title>Foglio.25</title>
			<path d="M0 640.13 A8.50412 8.50412 -180 0 0 8.5 648.64 L205.17 648.64 A8.50412 8.50412 -180 0 0 213.68 640.13 L213.68
						 626.6 A8.50412 8.50412 -180 0 0 205.17 618.1 L8.5 618.1 A8.50412 8.50412 -180 0 0 0 626.6 L0 640.13 Z"
					class="st2"/>
		</g>
		<g id="shape33-74" v:mID="33" v:groupContext="shape" transform="translate(120.407,-354.537)">
			<title>Foglio.26</title>
			<path d="M0 640.13 A8.50412 8.50412 -180 0 0 8.5 648.64 L203.46 648.64 A8.50412 8.50412 -180 0 0 211.97 640.13 L211.97
						 628.02 A8.50412 8.50412 -180 0 0 203.46 619.51 L8.5 619.51 A8.50412 8.50412 -180 0 0 0 628.02 L0 640.13
						 Z" class="st3"/>
		</g>
		<g id="shape34-76" v:mID="34" v:groupContext="shape" transform="translate(127.559,-354.538)">
			<title>Foglio.27</title>
			<desc>jsf.PropertyResolverChainWrapper (Supports legacy jsf.Propert...</desc>
			<v:userDefs/>
			<v:textBlock v:margins="rect(4,4,4,4)" v:tabSpace="42.5197"/>
			<v:textRect cx="81.9514" cy="634.075" width="163.91" height="29.126"/>
			<rect x="0" y="619.512" width="163.903" height="29.126" class="st4"/>
			<text x="4" y="631.67" class="st5" v:langID="2057"><v:paragraph/><v:tabList/>jsf.PropertyResolverChainWrapper<v:newlineChar/><tspan
						x="4" dy="1.2em" class="st10">(Supports legacy jsf.PropertyResolvers)</tspan></text>		</g>
		<g id="shape35-80" v:mID="35" v:groupContext="shape" transform="translate(125.626,-322.08)">
			<title>Foglio.28</title>
			<path d="M0 640.13 A8.50412 8.50412 -180 0 0 8.5 648.64 L232.89 648.64 A8.50412 8.50412 -180 0 0 241.39 640.13 L241.39
						 638.25 A8.50412 8.50412 -180 0 0 232.89 629.74 L8.5 629.74 A8.50412 8.50412 -180 0 0 -0 638.25 L0 640.13
						 Z" class="st2"/>
		</g>
		<g id="shape36-82" v:mID="36" v:groupContext="shape" transform="translate(120.407,-325.718)">
			<title>Foglio.29</title>
			<path d="M0 640.13 A8.50412 8.50412 -180 0 0 8.5 648.64 L232.46 648.64 A8.50412 8.50412 -180 0 0 240.96 640.13 L240.96
						 638.25 A8.50412 8.50412 -180 0 0 232.46 629.74 L8.5 629.74 A8.50412 8.50412 -180 0 0 0 638.25 L0 640.13
						 Z" class="st3"/>
		</g>
		<g id="shape37-84" v:mID="37" v:groupContext="shape" transform="translate(127.559,-326.192)">
			<title>Foglio.30</title>
			<desc>ELResolvers from Application.addELResolver()</desc>
			<v:userDefs/>
			<v:textBlock v:margins="rect(4,4,4,4)" v:tabSpace="42.5197"/>
			<v:textRect cx="95.669" cy="639.424" width="191.35" height="18.4252"/>
			<rect x="0" y="630.213" width="191.339" height="18.4252" class="st4"/>
			<text x="4" y="641.82" class="st5" v:langID="2057"><v:paragraph/><v:tabList/>ELResolvers from Application.addELResolver()</text>		</g>
		<g id="shape38-87" v:mID="38" v:groupContext="shape" transform="translate(96.6514,-280.198)">
			<title>Foglio.31</title>
			<path d="M0 640.13 A8.50412 8.50412 -180 0 0 8.5 648.64 L205.17 648.64 A8.50412 8.50412 -180 0 0 213.68 640.13 L213.68
						 627.38 A8.50412 8.50412 -180 0 0 205.17 618.88 L8.5 618.88 A8.50412 8.50412 -180 0 0 0 627.38 L0 640.13
						 Z" class="st2"/>
		</g>
		<g id="shape39-89" v:mID="39" v:groupContext="shape" transform="translate(92.0606,-284.45)">
			<title>Foglio.32</title>
			<path d="M0 640.13 A8.50412 8.50412 -180 0 0 8.5 648.64 L203.46 648.64 A8.50412 8.50412 -180 0 0 211.97 640.13 L211.97
						 628.8 A8.50412 8.50412 -180 0 0 203.46 620.29 L8.5 620.29 A8.50412 8.50412 -180 0 0 0 628.8 L0 640.13 Z"
					class="st3"/>
		</g>
		<g id="shape40-91" v:mID="40" v:groupContext="shape" transform="translate(99.2126,-284.452)">
			<title>Foglio.33</title>
			<desc>Other ELResolvers added via JspApplicationContext.addELResolv...</desc>
			<v:userDefs/>
			<v:textBlock v:margins="rect(4,4,4,4)" v:tabSpace="42.5197"/>
			<v:textRect cx="77.9528" cy="634.464" width="155.91" height="28.3465"/>
			<rect x="0" y="620.292" width="155.906" height="28.3465" class="st4"/>
			<text x="4" y="632.06" class="st5" v:langID="2057"><v:paragraph/><v:tabList/>Other ELResolvers added via <tspan x="4"
						dy="1.2em" class="st11">JspApplicationContext.addELResolver()</tspan></text>		</g>
		<g id="shape41-95" v:mID="41" v:groupContext="shape" transform="translate(67.3578,-250.576)">
			<title>Foglio.34</title>
			<path d="M0 640.13 A8.50412 8.50412 -180 0 0 8.5 648.64 L163.6 648.64 A8.50412 8.50412 -180 0 0 172.1 640.13 L172.1 638.25
						 A8.50412 8.50412 -180 0 0 163.6 629.74 L8.5 629.74 A8.50412 8.50412 -180 0 0 -0 638.25 L0 640.13 Z"
					class="st2"/>
		</g>
		<g id="shape42-97" v:mID="42" v:groupContext="shape" transform="translate(64.2185,-254.214)">
			<title>Foglio.35</title>
			<path d="M0 640.13 A8.50412 8.50412 -180 0 0 8.5 648.64 L162.22 648.64 A8.50412 8.50412 -180 0 0 170.73 640.13 L170.73
						 638.25 A8.50412 8.50412 -180 0 0 162.22 629.74 L8.5 629.74 A8.50412 8.50412 -180 0 0 0 638.25 L0 640.13
						 Z" class="st3"/>
		</g>
		<g id="shape43-99" v:mID="43" v:groupContext="shape" transform="translate(73.7008,-254.688)">
			<title>Foglio.36</title>
			<desc>el.MapELResolver</desc>
			<v:userDefs/>
			<v:textBlock v:margins="rect(4,4,4,4)" v:tabSpace="42.5197"/>
			<v:textRect cx="72.5839" cy="639.424" width="145.18" height="18.4252"/>
			<rect x="0" y="630.213" width="145.167" height="18.4252" class="st4"/>
			<text x="3.99" y="641.82" class="st5" v:langID="2057"><v:paragraph/><v:tabList/>el.MapELResolver</text>		</g>
		<g id="shape44-102" v:mID="44" v:groupContext="shape" transform="translate(67.3578,-222.23)">
			<title>Foglio.37</title>
			<path d="M0 640.13 A8.50412 8.50412 -180 0 0 8.5 648.64 L163.6 648.64 A8.50412 8.50412 -180 0 0 172.1 640.13 L172.1 638.25
						 A8.50412 8.50412 -180 0 0 163.6 629.74 L8.5 629.74 A8.50412 8.50412 -180 0 0 -0 638.25 L0 640.13 Z"
					class="st2"/>
		</g>
		<g id="shape45-104" v:mID="45" v:groupContext="shape" transform="translate(64.2185,-225.868)">
			<title>Foglio.38</title>
			<path d="M0 640.13 A8.50412 8.50412 -180 0 0 8.5 648.64 L162.22 648.64 A8.50412 8.50412 -180 0 0 170.73 640.13 L170.73
						 638.25 A8.50412 8.50412 -180 0 0 162.22 629.74 L8.5 629.74 A8.50412 8.50412 -180 0 0 0 638.25 L0 640.13
						 Z" class="st3"/>
		</g>
		<g id="shape46-106" v:mID="46" v:groupContext="shape" transform="translate(73.7008,-226.341)">
			<title>Foglio.39</title>
			<desc>el.ResourceBundleELResolver</desc>
			<v:userDefs/>
			<v:textBlock v:margins="rect(4,4,4,4)" v:tabSpace="42.5197"/>
			<v:textRect cx="75.9537" cy="639.424" width="151.92" height="18.4252"/>
			<rect x="0" y="630.213" width="151.907" height="18.4252" class="st4"/>
			<text x="3.99" y="641.82" class="st5" v:langID="2057"><v:paragraph/><v:tabList/>el.ResourceBundleELResolver</text>		</g>
		<g id="shape47-109" v:mID="47" v:groupContext="shape" transform="translate(67.1057,-193.812)">
			<title>Foglio.40</title>
			<path d="M0 640.13 A8.50412 8.50412 -180 0 0 8.5 648.64 L163.6 648.64 A8.50412 8.50412 -180 0 0 172.1 640.13 L172.1 638.25
						 A8.50412 8.50412 -180 0 0 163.6 629.74 L8.5 629.74 A8.50412 8.50412 -180 0 0 -0 638.25 L0 640.13 Z"
					class="st2"/>
		</g>
		<g id="shape48-111" v:mID="48" v:groupContext="shape" transform="translate(63.9664,-197.45)">
			<title>Foglio.41</title>
			<path d="M0 640.13 A8.50412 8.50412 -180 0 0 8.5 648.64 L162.22 648.64 A8.50412 8.50412 -180 0 0 170.73 640.13 L170.73
						 638.25 A8.50412 8.50412 -180 0 0 162.22 629.74 L8.5 629.74 A8.50412 8.50412 -180 0 0 -0 638.25 L0 640.13
						 Z" class="st3"/>
		</g>
		<g id="shape49-113" v:mID="49" v:groupContext="shape" transform="translate(73.7008,-197.663)">
			<title>Foglio.42</title>
			<desc>el.ListELResolver</desc>
			<v:userDefs/>
			<v:textBlock v:margins="rect(4,4,4,4)" v:tabSpace="42.5197"/>
			<v:textRect cx="65.066" cy="639.424" width="130.15" height="18.4252"/>
			<rect x="0" y="630.213" width="130.132" height="18.4252" class="st4"/>
			<text x="4" y="641.82" class="st5" v:langID="2057"><v:paragraph/><v:tabList/>el.ListELResolver</text>		</g>
		<g id="shape50-116" v:mID="50" v:groupContext="shape" transform="translate(67.3578,-165.537)">
			<title>Foglio.43</title>
			<path d="M0 640.13 A8.50412 8.50412 -180 0 0 8.5 648.64 L163.6 648.64 A8.50412 8.50412 -180 0 0 172.1 640.13 L172.1 638.25
						 A8.50412 8.50412 -180 0 0 163.6 629.74 L8.5 629.74 A8.50412 8.50412 -180 0 0 -0 638.25 L0 640.13 Z"
					class="st2"/>
		</g>
		<g id="shape51-118" v:mID="51" v:groupContext="shape" transform="translate(64.2185,-169.174)">
			<title>Foglio.44</title>
			<path d="M0 640.13 A8.50412 8.50412 -180 0 0 8.5 648.64 L162.22 648.64 A8.50412 8.50412 -180 0 0 170.73 640.13 L170.73
						 638.25 A8.50412 8.50412 -180 0 0 162.22 629.74 L8.5 629.74 A8.50412 8.50412 -180 0 0 -0 638.25 L0 640.13
						 Z" class="st3"/>
		</g>
		<g id="shape52-120" v:mID="52" v:groupContext="shape" transform="translate(73.7008,-169.316)">
			<title>Foglio.45</title>
			<desc>el.ArrayELResolver</desc>
			<v:userDefs/>
			<v:textBlock v:margins="rect(4,4,4,4)" v:tabSpace="42.5197"/>
			<v:textRect cx="65.066" cy="639.424" width="130.15" height="18.4252"/>
			<rect x="0" y="630.213" width="130.132" height="18.4252" class="st4"/>
			<text x="4" y="641.82" class="st5" v:langID="2057"><v:paragraph/><v:tabList/>el.ArrayELResolver</text>		</g>
		<g id="shape53-123" v:mID="53" v:groupContext="shape" transform="translate(66.846,-108.833)">
			<title>Foglio.46</title>
			<path d="M0 640.13 A8.50412 8.50412 -180 0 0 8.5 648.64 L163.6 648.64 A8.50412 8.50412 -180 0 0 172.1 640.13 L172.1 638.25
						 A8.50412 8.50412 -180 0 0 163.6 629.74 L8.5 629.74 A8.50412 8.50412 -180 0 0 0 638.25 L0 640.13 Z"
					class="st2"/>
		</g>
		<g id="shape54-125" v:mID="54" v:groupContext="shape" transform="translate(64.475,-112.471)">
			<title>Foglio.47</title>
			<path d="M0 640.13 A8.50412 8.50412 -180 0 0 8.5 648.64 L162.22 648.64 A8.50412 8.50412 -180 0 0 170.73 640.13 L170.73
						 638.25 A8.50412 8.50412 -180 0 0 162.22 629.74 L8.5 629.74 A8.50412 8.50412 -180 0 0 0 638.25 L0 640.13
						 Z" class="st3"/>
		</g>
		<g id="shape55-127" v:mID="55" v:groupContext="shape" transform="translate(73.7008,-112.613)">
			<title>Foglio.48</title>
			<desc>el.BeanELResolver</desc>
			<v:userDefs/>
			<v:textBlock v:margins="rect(4,4,4,4)" v:tabSpace="42.5197"/>
			<v:textRect cx="65.066" cy="639.424" width="130.15" height="18.4252"/>
			<rect x="0" y="630.213" width="130.132" height="18.4252" class="st4"/>
			<text x="4" y="641.82" class="st5" v:langID="2057"><v:paragraph/><v:tabList/>el.BeanELResolver</text>		</g>
		<g id="shape56-130" v:mID="56" v:groupContext="shape" transform="translate(66.846,-80.4162)">
			<title>Foglio.49</title>
			<path d="M0 640.13 A8.50412 8.50412 -180 0 0 8.5 648.64 L163.6 648.64 A8.50412 8.50412 -180 0 0 172.1 640.13 L172.1 638.25
						 A8.50412 8.50412 -180 0 0 163.6 629.74 L8.5 629.74 A8.50412 8.50412 -180 0 0 0 638.25 L0 640.13 Z"
					class="st2"/>
		</g>
		<g id="shape57-132" v:mID="57" v:groupContext="shape" transform="translate(64.475,-84.054)">
			<title>Foglio.50</title>
			<path d="M0 640.13 A8.50412 8.50412 -180 0 0 8.5 648.64 L162.22 648.64 A8.50412 8.50412 -180 0 0 170.73 640.13 L170.73
						 638.25 A8.50412 8.50412 -180 0 0 162.22 629.74 L8.5 629.74 A8.50412 8.50412 -180 0 0 0 638.25 L0 640.13
						 Z" class="st3"/>
		</g>
		<g id="shape58-134" v:mID="58" v:groupContext="shape" transform="translate(73.7008,-84.5276)">
			<title>Foglio.51</title>
			<desc>jsp.ScopedAttributeELResolver</desc>
			<v:userDefs/>
			<v:textBlock v:margins="rect(4,4,4,4)" v:tabSpace="42.5197"/>
			<v:textRect cx="76.5356" cy="639.424" width="153.08" height="18.4252"/>
			<rect x="0" y="630.213" width="153.071" height="18.4252" class="st4"/>
			<text x="4" y="641.82" class="st5" v:langID="2057"><v:paragraph/><v:tabList/>jsp.ScopedAttributeELResolver</text>		</g>
		<g id="group59-137" transform="translate(64.401,739.277) rotate(180)" v:mID="59" v:groupContext="group">
			<title>Foglio.600</title>
			<g id="shape60-138" v:mID="60" v:groupContext="shape">
				<title>Sheet.60</title>
				<path d="M0 648.64 L29.03 648.64 L0 648.64 Z" class="st6"/>
			</g>
			<g id="shape61-140" v:mID="61" v:groupContext="shape">
				<title>Sheet.61</title>
				<path d="M0 648.64 L29.03 648.64 L0 648.64 Z" class="st7"/>
				<path d="M0 648.64 L29.03 648.64" class="st8"/>
			</g>
		</g>
		<g id="group62-143" transform="translate(64.3121,1033.37) rotate(180)" v:mID="62" v:groupContext="group">
			<title>Foglio.601</title>
			<g id="shape63-144" v:mID="63" v:groupContext="shape">
				<title>Sheet.63</title>
				<path d="M0 648.64 L29.03 648.64 L0 648.64 Z" class="st6"/>
			</g>
			<g id="shape64-146" v:mID="64" v:groupContext="shape">
				<title>Sheet.64</title>
				<path d="M0 648.64 L29.03 648.64 L0 648.64 Z" class="st7"/>
				<path d="M0 648.64 L29.03 648.64" class="st8"/>
			</g>
		</g>
		<g id="group65-149" transform="translate(64.2185,1062.43) rotate(180)" v:mID="65" v:groupContext="group">
			<title>Foglio.602</title>
			<g id="shape66-150" v:mID="66" v:groupContext="shape">
				<title>Sheet.66</title>
				<path d="M0 648.64 L29.03 648.64 L0 648.64 Z" class="st6"/>
			</g>
			<g id="shape67-152" v:mID="67" v:groupContext="shape">
				<title>Sheet.67</title>
				<path d="M0 648.64 L29.03 648.64 L0 648.64 Z" class="st7"/>
				<path d="M0 648.64 L29.03 648.64" class="st8"/>
			</g>
		</g>
		<g id="group68-155" transform="translate(64.1045,1090.42) rotate(180)" v:mID="68" v:groupContext="group">
			<title>Foglio.603</title>
			<g id="shape69-156" v:mID="69" v:groupContext="shape">
				<title>Sheet.69</title>
				<path d="M0 648.64 L29.03 648.64 L0 648.64 Z" class="st6"/>
			</g>
			<g id="shape70-158" v:mID="70" v:groupContext="shape">
				<title>Sheet.70</title>
				<path d="M0 648.64 L29.03 648.64 L0 648.64 Z" class="st7"/>
				<path d="M0 648.64 L29.03 648.64" class="st8"/>
			</g>
		</g>
		<g id="group71-161" transform="translate(64.2185,1119.12) rotate(180)" v:mID="71" v:groupContext="group">
			<title>Foglio.604</title>
			<g id="shape72-162" v:mID="72" v:groupContext="shape">
				<title>Sheet.72</title>
				<path d="M0 648.64 L29.03 648.64 L0 648.64 Z" class="st6"/>
			</g>
			<g id="shape73-164" v:mID="73" v:groupContext="shape">
				<title>Sheet.73</title>
				<path d="M0 648.64 L29.03 648.64 L0 648.64 Z" class="st7"/>
				<path d="M0 648.64 L29.03 648.64" class="st8"/>
			</g>
		</g>
		<g id="group74-167" transform="translate(64.401,1147.11) rotate(180)" v:mID="74" v:groupContext="group">
			<title>Foglio.605</title>
			<g id="shape75-168" v:mID="75" v:groupContext="shape">
				<title>Sheet.75</title>
				<path d="M0 648.64 L29.03 648.64 L0 648.64 Z" class="st6"/>
			</g>
			<g id="shape76-170" v:mID="76" v:groupContext="shape">
				<title>Sheet.76</title>
				<path d="M0 648.64 L29.03 648.64 L0 648.64 Z" class="st7"/>
				<path d="M0 648.64 L29.03 648.64" class="st8"/>
			</g>
		</g>
		<g id="group77-173" transform="translate(64.515,1175.82) rotate(180)" v:mID="77" v:groupContext="group">
			<title>Foglio.606</title>
			<g id="shape78-174" v:mID="78" v:groupContext="shape">
				<title>Sheet.78</title>
				<path d="M0 648.64 L29.03 648.64 L0 648.64 Z" class="st6"/>
			</g>
			<g id="shape79-176" v:mID="79" v:groupContext="shape">
				<title>Sheet.79</title>
				<path d="M0 648.64 L29.03 648.64 L0 648.64 Z" class="st7"/>
				<path d="M0 648.64 L29.03 648.64" class="st8"/>
			</g>
		</g>
		<g id="group80-179" transform="translate(-573.58,350.58) rotate(-90)" v:mID="80" v:groupContext="group">
			<title>Foglio.607</title>
			<g id="shape81-180" v:mID="81" v:groupContext="shape">
				<title>Sheet.81</title>
				<path d="M0 648.64 L251.36 648.64 L0 648.64 Z" class="st6"/>
			</g>
			<g id="shape82-182" v:mID="82" v:groupContext="shape">
				<title>Sheet.82</title>
				<path d="M0 648.64 L251.36 648.64 L0 648.64 Z" class="st7"/>
				<path d="M0 648.64 L251.36 648.64" class="st8"/>
			</g>
		</g>
		<g id="group83-185" transform="translate(-542.399,313.503) rotate(-90)" v:mID="83" v:groupContext="group">
			<title>Foglio.608</title>
			<g id="shape84-186" v:mID="84" v:groupContext="shape">
				<title>Sheet.84</title>
				<path d="M0 648.64 L185.73 648.64 L0 648.64 Z" class="st6"/>
			</g>
			<g id="shape85-188" v:mID="85" v:groupContext="shape">
				<title>Sheet.85</title>
				<path d="M0 648.64 L185.73 648.64 L0 648.64 Z" class="st7"/>
				<path d="M0 648.64 L185.73 648.64" class="st8"/>
			</g>
		</g>
		<g id="group86-191" transform="translate(91.7278,768.096) rotate(180)" v:mID="86" v:groupContext="group">
			<title>Foglio.609</title>
			<g id="shape87-192" v:mID="87" v:groupContext="shape">
				<title>Sheet.87</title>
				<path d="M0 648.64 L16.68 648.64 L0 648.64 Z" class="st6"/>
			</g>
			<g id="shape88-194" v:mID="88" v:groupContext="shape">
				<title>Sheet.88</title>
				<path d="M0 648.64 L16.68 648.64 L0 648.64 Z" class="st7"/>
				<path d="M0 648.64 L16.68 648.64" class="st8"/>
			</g>
		</g>
		<g id="group89-197" transform="translate(120.407,795.686) rotate(180)" v:mID="89" v:groupContext="group">
			<title>Foglio.610</title>
			<g id="shape90-198" v:mID="90" v:groupContext="shape">
				<title>Sheet.90</title>
				<path d="M0 648.64 L14.17 648.64 L0 648.64 Z" class="st6"/>
			</g>
			<g id="shape91-200" v:mID="91" v:groupContext="shape">
				<title>Sheet.91</title>
				<path d="M0 648.64 L14.17 648.64 L0 648.64 Z" class="st7"/>
				<path d="M0 648.64 L14.17 648.64" class="st8"/>
			</g>
		</g>
		<g id="group92-203" transform="translate(120.407,824.033) rotate(180)" v:mID="92" v:groupContext="group">
			<title>Foglio.611</title>
			<g id="shape93-204" v:mID="93" v:groupContext="shape">
				<title>Sheet.93</title>
				<path d="M0 648.64 L14.17 648.64 L0 648.64 Z" class="st6"/>
			</g>
			<g id="shape94-206" v:mID="94" v:groupContext="shape">
				<title>Sheet.94</title>
				<path d="M0 648.64 L14.17 648.64 L0 648.64 Z" class="st7"/>
				<path d="M0 648.64 L14.17 648.64" class="st8"/>
			</g>
		</g>
		<g id="group95-209" transform="translate(120.407,852.946) rotate(180)" v:mID="95" v:groupContext="group">
			<title>Foglio.612</title>
			<g id="shape96-210" v:mID="96" v:groupContext="shape">
				<title>Sheet.96</title>
				<path d="M0 648.64 L14.17 648.64 L0 648.64 Z" class="st6"/>
			</g>
			<g id="shape97-212" v:mID="97" v:groupContext="shape">
				<title>Sheet.97</title>
				<path d="M0 648.64 L14.17 648.64 L0 648.64 Z" class="st7"/>
				<path d="M0 648.64 L14.17 648.64" class="st8"/>
			</g>
		</g>
		<g id="group98-215" transform="translate(120.407,886.395) rotate(180)" v:mID="98" v:groupContext="group">
			<title>Foglio.613</title>
			<g id="shape99-216" v:mID="99" v:groupContext="shape">
				<title>Sheet.99</title>
				<path d="M0 648.64 L14.17 648.64 L0 648.64 Z" class="st6"/>
			</g>
			<g id="shape100-218" v:mID="100" v:groupContext="shape">
				<title>Sheet.100</title>
				<path d="M0 648.64 L14.17 648.64 L0 648.64 Z" class="st7"/>
				<path d="M0 648.64 L14.17 648.64" class="st8"/>
			</g>
		</g>
		<g id="group101-221" transform="translate(120.407,927.781) rotate(180)" v:mID="101" v:groupContext="group">
			<title>Foglio.614</title>
			<g id="shape102-222" v:mID="102" v:groupContext="shape">
				<title>Sheet.102</title>
				<path d="M0 648.64 L14.17 648.64 L0 648.64 Z" class="st6"/>
			</g>
			<g id="shape103-224" v:mID="103" v:groupContext="shape">
				<title>Sheet.103</title>
				<path d="M0 648.64 L14.17 648.64 L0 648.64 Z" class="st7"/>
				<path d="M0 648.64 L14.17 648.64" class="st8"/>
			</g>
		</g>
		<g id="group104-227" transform="translate(120.407,962.137) rotate(180)" v:mID="104" v:groupContext="group">
			<title>Foglio.615</title>
			<g id="shape105-228" v:mID="105" v:groupContext="shape">
				<title>Sheet.105</title>
				<path d="M0 648.64 L14.17 648.64 L0 648.64 Z" class="st6"/>
			</g>
			<g id="shape106-230" v:mID="106" v:groupContext="shape">
				<title>Sheet.106</title>
				<path d="M0 648.64 L14.17 648.64 L0 648.64 Z" class="st7"/>
				<path d="M0 648.64 L14.17 648.64" class="st8"/>
			</g>
		</g>
		<g id="group107-233" transform="translate(91.957,999.214) rotate(180)" v:mID="107" v:groupContext="group">
			<title>Foglio.616</title>
			<g id="shape108-234" v:mID="108" v:groupContext="shape">
				<title>Sheet.108</title>
				<path d="M0 648.64 L16.76 648.64 L0 648.64 Z" class="st6"/>
			</g>
			<g id="shape109-236" v:mID="109" v:groupContext="shape">
				<title>Sheet.109</title>
				<path d="M0 648.64 L16.76 648.64 L0 648.64 Z" class="st7"/>
				<path d="M0 648.64 L16.76 648.64" class="st8"/>
			</g>
		</g>
		<g id="shape110-239" v:mID="110" v:groupContext="shape" transform="translate(66.6298,-51.6669)">
			<title>Foglio.76</title>
			<path d="M0 640.13 A8.50412 8.50412 -180 0 0 8.5 648.64 L163.6 648.64 A8.50412 8.50412 -180 0 0 172.1 640.13 L172.1 638.25
						 A8.50412 8.50412 -180 0 0 163.6 629.74 L8.5 629.74 A8.50412 8.50412 -180 0 0 0 638.25 L0 640.13 Z"
					class="st2"/>
		</g>
		<g id="shape111-241" v:mID="111" v:groupContext="shape" transform="translate(64.2588,-55.3047)">
			<title>Foglio.77</title>
			<path d="M0 640.13 A8.50412 8.50412 -180 0 0 8.5 648.64 L162.22 648.64 A8.50412 8.50412 -180 0 0 170.73 640.13 L170.73
						 638.25 A8.50412 8.50412 -180 0 0 162.22 629.74 L8.5 629.74 A8.50412 8.50412 -180 0 0 0 638.25 L0 640.13
						 Z" class="st3"/>
		</g>
		<g id="shape112-243" v:mID="112" v:groupContext="shape" transform="translate(73.7008,-55.9197)">
			<title>Foglio.78</title>
			<desc>jsp.ScopedAttributeELResolver</desc>
			<v:userDefs/>
			<v:textBlock v:margins="rect(4,4,4,4)" v:tabSpace="42.5197"/>
			<v:textRect cx="76.5356" cy="639.424" width="153.08" height="18.4252"/>
			<rect x="0" y="630.213" width="153.071" height="18.4252" class="st4"/>
			<text x="4" y="641.82" class="st5" v:langID="2057"><v:paragraph/><v:tabList/>jsp.ImportELResolver</text>		</g>
		<g id="group113-246" transform="translate(64.2988,1204.57) rotate(180)" v:mID="113" v:groupContext="group">
			<title>Foglio.79</title>
			<g id="shape114-247" v:mID="114" v:groupContext="shape">
				<title>Sheet.114</title>
				<path d="M0 648.64 L29.03 648.64 L0 648.64 Z" class="st6"/>
			</g>
			<g id="shape115-249" v:mID="115" v:groupContext="shape">
				<title>Sheet.115</title>
				<path d="M0 648.64 L29.03 648.64 L0 648.64 Z" class="st7"/>
				<path d="M0 648.64 L29.03 648.64" class="st8"/>
			</g>
		</g>
		<g id="shape116-252" v:mID="116" v:groupContext="shape" transform="translate(66.6298,-23.4624)">
			<title>Foglio.80</title>
			<path d="M0 640.13 A8.50412 8.50412 -180 0 0 8.5 648.64 L163.6 648.64 A8.50412 8.50412 -180 0 0 172.1 640.13 L172.1 638.25
						 A8.50412 8.50412 -180 0 0 163.6 629.74 L8.5 629.74 A8.50412 8.50412 -180 0 0 0 638.25 L0 640.13 Z"
					class="st2"/>
		</g>
		<g id="shape117-254" v:mID="117" v:groupContext="shape" transform="translate(64.2588,-27.1002)">
			<title>Foglio.81</title>
			<path d="M0 640.13 A8.50412 8.50412 -180 0 0 8.5 648.64 L162.22 648.64 A8.50412 8.50412 -180 0 0 170.73 640.13 L170.73
						 638.25 A8.50412 8.50412 -180 0 0 162.22 629.74 L8.5 629.74 A8.50412 8.50412 -180 0 0 0 638.25 L0 640.13
						 Z" class="st3"/>
		</g>
		<g id="shape118-256" v:mID="118" v:groupContext="shape" transform="translate(73.7008,-27.5734)">
			<title>Foglio.82</title>
			<desc>jsp.ScopedAttributeELResolver</desc>
			<v:userDefs/>
			<v:textBlock v:margins="rect(4,4,4,4)" v:tabSpace="42.5197"/>
			<v:textRect cx="76.5356" cy="639.424" width="153.08" height="18.4252"/>
			<rect x="0" y="630.213" width="153.071" height="18.4252" class="st4"/>
			<text x="4" y="641.82" class="st5" v:langID="2057"><v:paragraph/><v:tabList/>jsp.NotFoundELResolver</text>		</g>
		<g id="group119-259" transform="translate(64.2988,1232.77) rotate(180)" v:mID="119" v:groupContext="group">
			<title>Foglio.83</title>
			<g id="shape120-260" v:mID="120" v:groupContext="shape">
				<title>Sheet.120</title>
				<path d="M0 648.64 L29.03 648.64 L0 648.64 Z" class="st6"/>
			</g>
			<g id="shape121-262" v:mID="121" v:groupContext="shape">
				<title>Sheet.121</title>
				<path d="M0 648.64 L29.03 648.64 L0 648.64 Z" class="st7"/>
				<path d="M0 648.64 L29.03 648.64" class="st8"/>
			</g>
		</g>
		<g id="shape122-265" v:mID="122" v:groupContext="shape" transform="translate(67.3306,-136.848)">
			<title>Foglio.122</title>
			<path d="M0 640.13 A8.50412 8.50412 -180 0 0 8.5 648.64 L163.6 648.64 A8.50412 8.50412 -180 0 0 172.1 640.13 L172.1 638.25
						 A8.50412 8.50412 -180 0 0 163.6 629.74 L8.5 629.74 A8.50412 8.50412 -180 0 0 0 638.25 L0 640.13 Z"
					class="st2"/>
		</g>
		<g id="shape123-267" v:mID="123" v:groupContext="shape" transform="translate(64.9596,-140.486)">
			<title>Foglio.123</title>
			<path d="M0 640.13 A8.50412 8.50412 -180 0 0 8.5 648.64 L162.22 648.64 A8.50412 8.50412 -180 0 0 170.73 640.13 L170.73
						 638.25 A8.50412 8.50412 -180 0 0 162.22 629.74 L8.5 629.74 A8.50412 8.50412 -180 0 0 0 638.25 L0 640.13
						 Z" class="st3"/>
		</g>
		<g id="shape124-269" v:mID="124" v:groupContext="shape" transform="translate(73.7008,-140.628)">
			<title>Foglio.124</title>
			<desc>el.BeanELResolver</desc>
			<v:userDefs/>
			<v:textBlock v:margins="rect(4,4,4,4)" v:tabSpace="42.5197"/>
			<v:textRect cx="68.3482" cy="639.424" width="136.71" height="18.4252"/>
			<rect x="0" y="630.213" width="136.696" height="18.4252" class="st4"/>
			<text x="3.99" y="641.82" class="st5" v:langID="2057"><v:paragraph/><v:tabList/>el.<tspan class="st11" v:langID="1033">Record</tspan>ELResolver</text>		</g>
		<g id="group125-273" transform="translate(63.7795,1259.64) rotate(180)" v:mID="125" v:groupContext="group">
			<title>Foglio.125</title>
			<g id="shape126-274" v:mID="126" v:groupContext="shape">
				<title>Sheet.126</title>
				<path d="M0 648.64 L29.03 648.64 L0 648.64 Z" class="st6"/>
			</g>
			<g id="shape127-276" v:mID="127" v:groupContext="shape">
				<title>Sheet.127</title>
				<path d="M0 648.64 L29.03 648.64 L0 648.64 Z" class="st7"/>
				<path d="M0 648.64 L29.03 648.64" class="st8"/>
			</g>
		</g>
	</g>
</svg>
